<?xml version="1.0" standalone="no"?>
<!DOCTYPE svg PUBLIC "-//W3C//DTD SVG 20010904//EN"
 "http://www.w3.org/TR/2001/REC-SVG-20010904/DTD/svg10.dtd">
<svg version="1.0" xmlns="http://www.w3.org/2000/svg"
 width="286.000000pt" height="286.000000pt" viewBox="0 0 286.000000 286.000000"
 preserveAspectRatio="xMidYMid meet">
<metadata>
Created by potrace 1.11, written by Peter Selinger 2001-2013
</metadata>
<g transform="translate(0.000000,286.000000) scale(0.100000,-0.100000)"
fill="#000000" stroke="none">
<path d="M1535 2070 c-104 -25 -145 -45 -145 -70 0 -32 21 -33 106 -4 192 66
440 22 592 -104 l33 -28 -51 -35 -51 -36 128 -58 c70 -31 134 -60 142 -63 14
-5 13 13 -5 213 -8 92 -8 91 -64 51 -27 -19 -52 -31 -55 -26 -12 20 -158 110
-212 130 -132 51 -289 62 -418 30z"/>
<path d="M944 2023 c-7 -5 -17 -27 -24 -50 -24 -79 -66 -96 -142 -57 l-49 25
-62 -60 c-69 -66 -66 -50 -25 -151 18 -44 -4 -78 -67 -104 -27 -11 -53 -24
-56 -29 -10 -14 -4 -156 7 -165 5 -5 30 -16 55 -26 65 -23 79 -52 55 -114 -31
-82 -32 -78 27 -137 30 -30 60 -55 67 -55 6 0 30 9 52 20 74 36 109 21 137
-57 7 -21 17 -43 22 -48 6 -9 135 -13 170 -6 3 0 11 18 17 40 17 54 48 91 78
91 14 0 42 -9 64 -20 22 -11 45 -20 52 -20 20 0 118 103 118 123 0 10 -7 32
-16 48 -8 17 -17 43 -19 59 -4 35 26 63 87 82 45 13 50 26 46 123 l-3 69 -55
21 c-76 29 -90 58 -61 125 12 27 21 55 21 63 0 21 -96 117 -118 117 -11 0 -40
-9 -66 -21 -64 -28 -93 -14 -121 61 l-21 55 -79 3 c-44 1 -85 -1 -91 -5z m142
-98 c31 -82 106 -113 187 -77 l45 20 28 -29 28 -29 -18 -50 c-23 -63 -15 -109
23 -148 16 -16 44 -33 63 -38 30 -9 33 -13 36 -55 3 -44 2 -45 -35 -58 -45
-16 -70 -36 -89 -73 -18 -34 -18 -57 1 -112 17 -50 14 -64 -20 -88 -21 -16
-27 -16 -59 -3 -81 34 -152 6 -189 -74 -22 -46 -24 -48 -61 -45 -44 3 -50 7
-65 54 -22 68 -108 98 -186 66 l-39 -17 -30 30 -30 30 19 40 c35 79 4 155 -80
191 -36 15 -39 20 -40 56 -1 37 2 40 47 61 80 36 107 108 73 190 -15 36 -15
37 14 66 l29 29 45 -17 c83 -31 150 -2 183 80 18 43 21 45 61 45 40 0 42 -2
59 -45z"/>
<path d="M962 1711 c-63 -22 -98 -52 -123 -106 -69 -148 55 -313 219 -291 99
13 172 100 172 204 0 29 -7 69 -16 88 -23 47 -90 102 -133 110 -20 3 -43 7
-51 9 -8 3 -39 -4 -68 -14z m145 -72 c35 -21 57 -63 61 -113 3 -41 -1 -58 -20
-86 -65 -97 -204 -88 -253 16 -33 70 -5 148 69 190 31 17 45 20 81 13 24 -5
52 -13 62 -20z"/>
<path d="M1757 1551 c-32 -37 -39 -38 -77 -10 l-29 22 -44 -26 c-52 -31 -59
-44 -47 -86 10 -35 1 -45 -48 -56 -36 -7 -47 -22 -57 -79 -7 -36 -5 -41 29
-70 l37 -31 -24 -36 c-23 -34 -24 -39 -11 -65 31 -63 46 -74 86 -65 42 10 56
0 64 -46 7 -37 14 -43 64 -54 53 -12 74 -6 88 26 12 26 55 35 67 15 18 -29 43
-29 90 1 47 30 47 30 41 74 -8 47 -1 57 44 63 35 5 47 18 56 60 10 50 7 61
-27 89 -35 30 -35 36 -7 75 21 30 21 31 2 66 -30 56 -42 64 -84 57 -42 -7 -54
3 -65 52 -8 40 -9 40 -71 48 -46 7 -51 5 -77 -24z m77 -37 c9 -3 16 -16 16
-29 0 -39 46 -75 96 -75 50 0 61 -12 40 -42 -25 -36 -20 -88 11 -120 38 -40
37 -54 -8 -67 -49 -15 -73 -49 -67 -96 3 -27 0 -36 -14 -41 -11 -3 -25 -1 -32
5 -32 27 -108 15 -127 -20 -10 -20 -48 -26 -50 -9 -8 65 -41 94 -102 92 -46
-2 -53 11 -32 61 18 44 12 77 -21 108 -21 20 -35 67 -16 55 13 -8 70 22 82 44
6 12 12 36 12 53 1 47 15 61 44 42 39 -26 92 -19 123 15 30 34 25 32 45 24z"/>
<path d="M1714 1386 c-129 -58 -88 -255 54 -258 138 -3 192 173 77 248 -34 22
-93 27 -131 10z m94 -56 c7 0 20 -15 28 -34 14 -29 15 -37 3 -62 -19 -39 -53
-55 -90 -42 -34 12 -49 35 -49 77 0 36 43 75 75 67 11 -3 26 -6 33 -6z"/>
<path d="M955 878 c2 -7 6 -44 10 -83 14 -169 17 -200 19 -202 1 -1 24 12 51
30 l49 33 71 -51 c124 -89 234 -125 392 -130 148 -4 323 42 323 85 0 29 -24
35 -73 17 -177 -66 -367 -55 -528 29 -36 19 -81 47 -99 63 l-34 28 47 32 c26
17 47 34 47 37 0 4 -45 26 -217 105 -49 22 -64 24 -58 7z"/>
</g>
</svg>
